<svg width="586" height="620" viewBox="0 0 586 620" fill="none" xmlns="http://www.w3.org/2000/svg">
<path d="M248.707 362.879L339.431 362.879C347.899 362.879 353.192 372.046 348.958 379.379L303.595 457.949C299.361 465.282 288.777 465.282 284.543 457.949L239.18 379.379C234.946 372.046 240.239 362.879 248.707 362.879Z" fill="#14F094" stroke="white" stroke-width="4"/>
<rect x="272" y="421" width="44" height="194" rx="11" fill="#14F094" stroke="white" stroke-width="4"/>
<path d="M291.937 3C117.673 93.2786 122.385 173.121 291.937 361.5C461.489 173.121 466.2 93.2786 291.937 3Z" fill="#8F4AF6" stroke="white" stroke-width="4"/>
<path d="M173 53C112.077 333.97 160.435 368.26 292.5 361C287.373 166.247 270.785 81.6415 173 53Z" fill="#8F4AF6" stroke="white" stroke-width="4"/>
<path d="M411.5 53C472.423 333.97 424.065 368.26 292 361C297.127 166.247 313.715 81.6415 411.5 53Z" fill="#8F4AF6" stroke="white" stroke-width="4"/>
<path d="M291 616.5C109.569 547.638 48.2638 466.659 4 254C54.796 304.884 81.0458 328.217 121.5 355C271.007 430.619 278.176 497.267 290.914 615.701L291 616.5Z" fill="#14F094"/>
<path d="M291 616.5C109.569 547.638 48.2638 466.659 4 254C54.796 304.884 81.0458 328.217 121.5 355C271.007 430.619 278.176 497.267 290.914 615.701M291 616.5L290.914 615.701M291 616.5C290.971 616.233 290.943 615.967 290.914 615.701" stroke="white" stroke-width="4"/>
<path d="M295 616.5C476.431 547.638 537.736 466.659 582 254C531.204 304.884 504.954 328.217 464.5 355C314.993 430.619 307.824 497.267 295.086 615.701L295 616.5Z" fill="#14F094"/>
<path d="M295 616.5C476.431 547.638 537.736 466.659 582 254C531.204 304.884 504.954 328.217 464.5 355C314.993 430.619 307.824 497.267 295.086 615.701M295 616.5L295.086 615.701M295 616.5C295.029 616.233 295.057 615.967 295.086 615.701" stroke="white" stroke-width="4"/>
</svg>
